<?xml version="1.0" encoding="UTF-8"?>
<svg version="1.1" xmlns="http://www.w3.org/2000/svg" width="447" height="81">
<path d="M0 0 C5.05475451 8.35510968 8.14277819 16.73972355 11 26 C12.8752079 32.00241781 15.06155974 37.42709606 18 43 C19.07741994 36.02292138 20.04386589 29.11511107 20.4375 22.0625 C20.76880303 17.0438726 21.63332734 13.42464889 24 9 C24.99 9 25.98 9 27 9 C27.66 7.35 28.32 5.7 29 4 C30.32 4 31.64 4 33 4 C32.64840411 14.96009264 31.92226513 25.80260133 30.5625 36.6875 C30.44028076 37.6775 30.31806152 38.6675 30.19213867 39.6875 C29.83059735 42.46518979 29.4309188 45.23227304 29 48 C28.86706543 48.86963379 28.73413086 49.73926758 28.59716797 50.63525391 C28.45037598 51.44269043 28.30358398 52.25012695 28.15234375 53.08203125 C28.02722412 53.79206299 27.90210449 54.50209473 27.77319336 55.23364258 C27 57 27 57 25.13891602 58.2800293 C21.63169262 59.46057967 19.36751748 58.33539486 16 57 C10.42542875 53.39292448 8.0916348 49.26260067 6 43 C6 42.34 6 41.68 6 41 C5.34 41 4.68 41 4 41 C3.896875 40.2575 3.79375 39.515 3.6875 38.75 C3.08135049 35.56949927 3.08135049 35.56949927 0 32 C0 39.26 0 46.52 0 54 C-1.32 53.67 -2.64 53.34 -4 53 C-4.33 54.32 -4.66 55.64 -5 57 C-6.32 57 -7.64 57 -9 57 C-10.79702632 49.81944525 -11.58850886 42.81205443 -12.125 35.4375 C-12.21136719 34.35275391 -12.29773437 33.26800781 -12.38671875 32.15039062 C-12.99437121 24.20750492 -13.43786748 16.53382844 -12.1875 8.625 C-11.96126953 7.09746094 -11.96126953 7.09746094 -11.73046875 5.5390625 C-11 3 -11 3 -8 1 C-5.2133692 0.3033423 -2.88120712 0 0 0 Z " fill="#D63130" transform="translate(51,8)"/>
<path d="M0 0 C1.37478516 0.01740234 1.37478516 0.01740234 2.77734375 0.03515625 C3.69644531 0.04417969 4.61554688 0.05320312 5.5625 0.0625 C6.27277344 0.07410156 6.98304688 0.08570312 7.71484375 0.09765625 C8.04484375 0.75765625 8.37484375 1.41765625 8.71484375 2.09765625 C9.37484375 1.43765625 10.03484375 0.77765625 10.71484375 0.09765625 C13.83203125 -0.23828125 13.83203125 -0.23828125 17.58984375 -0.27734375 C18.82476562 -0.30570313 20.0596875 -0.3340625 21.33203125 -0.36328125 C25.21350691 0.16560342 26.33644935 1.07386839 28.71484375 4.09765625 C29.23175781 3.45183594 29.74867188 2.80601563 30.28125 2.140625 C33.49270137 -0.55534461 35.49890088 -0.53221861 39.65234375 -0.58984375 C40.85761719 -0.63496094 42.06289063 -0.68007813 43.3046875 -0.7265625 C47.04449517 0.17733145 48.78203578 1.26747389 50.82788086 4.5637207 C52.88145558 10.4305118 52.21078608 16.89710678 52.02734375 23.03515625 C52.0022312 24.49670668 51.97942323 25.95829862 51.95898438 27.41992188 C51.90421813 30.98003728 51.81811132 34.53857923 51.71484375 38.09765625 C48.08484375 38.09765625 44.45484375 38.09765625 40.71484375 38.09765625 C40.38484375 28.52765625 40.05484375 18.95765625 39.71484375 9.09765625 C33.08151042 9.33098958 33.08151042 9.33098958 30.71484375 12.09765625 C30.34277021 14.81381489 30.34277021 14.81381489 30.30078125 17.98046875 C30.26210938 19.14707031 30.2234375 20.31367187 30.18359375 21.515625 C30.15265625 22.73894531 30.12171875 23.96226563 30.08984375 25.22265625 C30.05117188 26.45371094 30.0125 27.68476562 29.97265625 28.953125 C29.87814385 32.00115001 29.79258881 35.04916487 29.71484375 38.09765625 C26.08484375 38.09765625 22.45484375 38.09765625 18.71484375 38.09765625 C18.71484375 28.52765625 18.71484375 18.95765625 18.71484375 9.09765625 C11.4311078 9.17674533 11.4311078 9.17674533 9.71484375 11.09765625 C9.56893175 13.01105894 9.48751445 14.92945586 9.43359375 16.84765625 C9.39621094 18.01296875 9.35882813 19.17828125 9.3203125 20.37890625 C9.28550781 21.60609375 9.25070312 22.83328125 9.21484375 24.09765625 C9.1463002 26.5144509 9.07361496 28.9311329 8.99609375 31.34765625 C8.9506543 32.96414062 8.9506543 32.96414062 8.90429688 34.61328125 C8.71484375 37.09765625 8.71484375 37.09765625 7.71484375 38.09765625 C6.05055324 38.19589562 4.38202444 38.22739256 2.71484375 38.22265625 C1.35359375 38.22652344 1.35359375 38.22652344 -0.03515625 38.23046875 C-2.28515625 38.09765625 -2.28515625 38.09765625 -3.28515625 37.09765625 C-3.38611189 34.44309432 -3.42486623 31.81510449 -3.41796875 29.16015625 C-3.41892548 28.36488525 -3.4198822 27.56961426 -3.42086792 26.75024414 C-3.42154968 25.06559165 -3.41969568 23.38093654 -3.41552734 21.69628906 C-3.410179 19.10866428 -3.41547244 16.52121309 -3.421875 13.93359375 C-3.42121422 12.30078086 -3.41993305 10.66796809 -3.41796875 9.03515625 C-3.41999298 8.25599854 -3.42201721 7.47684082 -3.42410278 6.67407227 C-3.39541711 0.1451033 -3.39541711 0.1451033 0 0 Z " fill="#D8D8D8" transform="translate(318.28515625,26.90234375)"/>
<path d="M0 0 C2.2560422 1.8670694 3.34039188 3.51058782 5 6 C5 8 5 8 4 10 C1.1875 11.875 1.1875 11.875 -2 13 C-4.52074282 12.27978777 -5.62099015 11.47376232 -7.25 9.4375 C-10.10597794 7.09151812 -13.43323698 7.01395993 -17 7 C-20.51225958 7.70245192 -21.60601522 8.49732976 -23.8125 11.3125 C-25.96386587 17.99305719 -26.0454686 25.06273107 -23.6875 31.6875 C-22.04276456 34.22076102 -22.04276456 34.22076102 -19 36 C-16.85056665 36.27877399 -16.85056665 36.27877399 -14.5625 36.1875 C-13.80066406 36.18105469 -13.03882813 36.17460938 -12.25390625 36.16796875 C-10.06062143 36.00451771 -8.11129193 35.60116513 -6 35 C-5.34 32.69 -4.68 30.38 -4 28 C-0.85262818 28.69941596 2.02588876 29.76078698 5 31 C4.64423657 36.92939046 3.19369925 39.80630075 -1 44 C-5.16161351 47.14731345 -8.81110009 47.4601871 -13.875 47.375 C-14.89787109 47.39240234 -14.89787109 47.39240234 -15.94140625 47.41015625 C-20.96874289 47.38142861 -24.49665733 46.22227615 -29 44 C-29 43.34 -29 42.68 -29 42 C-29.99 41.67 -30.98 41.34 -32 41 C-38.00600107 33.35599863 -38.78499883 25.41998599 -38 16 C-36.58142241 8.72978986 -33.42079716 4.42079716 -28.25 -0.75 C-19.34982756 -5.69454025 -8.75324633 -4.64457969 0 0 Z " fill="#E0E0E0" transform="translate(204,18)"/>
<path d="M0 0 C1.13211914 -0.01740234 1.13211914 -0.01740234 2.28710938 -0.03515625 C5.6160616 -0.01755826 8.02582734 0.14721204 10.96484375 1.7734375 C12.4375 3.375 12.4375 3.375 12.4375 5.375 C13.0975 5.375 13.7575 5.375 14.4375 5.375 C15.27475216 9.01638242 15.57259204 12.39094496 15.5625 16.125 C15.56636719 17.57132813 15.56636719 17.57132813 15.5703125 19.046875 C15.4375 21.375 15.4375 21.375 14.4375 22.375 C12.80277118 22.46200342 11.16435945 22.48201063 9.52734375 22.47265625 C8.53798828 22.46943359 7.54863281 22.46621094 6.52929688 22.46289062 C5.48837891 22.45451172 4.44746094 22.44613281 3.375 22.4375 C2.33021484 22.43298828 1.28542969 22.42847656 0.20898438 22.42382812 C-2.3815666 22.41199913 -4.97200559 22.39551689 -7.5625 22.375 C-5.69683512 26.00293998 -5.69683512 26.00293998 -2.5625 28.375 C0.3532691 28.79202122 0.3532691 28.79202122 3.4375 28.375 C5.81469693 26.49998069 5.81469693 26.49998069 7.4375 24.375 C13.0375 25.83586957 13.0375 25.83586957 14.875 28.3125 C15.4375 30.375 15.4375 30.375 14.4375 33.375 C9.92017916 37.99987609 6.45393394 38.8051148 0 39.0625 C-5.90767563 38.86382446 -9.58332497 38.06630797 -14.046875 34.17578125 C-18.01019892 29.4667804 -19.11756479 25.68041237 -19.0625 19.5625 C-19.05822998 18.85198486 -19.05395996 18.14146973 -19.04956055 17.40942383 C-18.8868556 12.39776649 -18.06370383 8.9052415 -15.14453125 4.85546875 C-10.32772746 0.34789187 -6.32613362 -0.09774284 0 0 Z M-6.5625 10.375 C-6.8925 11.695 -7.2225 13.015 -7.5625 14.375 C-3.2725 14.375 1.0175 14.375 5.4375 14.375 C5.1075 12.725 4.7775 11.075 4.4375 9.375 C0.37518811 7.34384405 -2.89565625 7.9304375 -6.5625 10.375 Z " fill="#E0E0E0" transform="translate(103.5625,26.625)"/>
<path d="M0 0 C0.74636719 -0.00708984 1.49273437 -0.01417969 2.26171875 -0.02148438 C6.80019458 0.03072818 9.82963238 0.51084664 13.5 3.4375 C16.97460533 9.18857088 17.09565851 14.81652659 16.5 21.4375 C15.5 22.4375 15.5 22.4375 13.36694336 22.55102539 C12.45050049 22.54578857 11.53405762 22.54055176 10.58984375 22.53515625 C9.60048828 22.53193359 8.61113281 22.52871094 7.59179688 22.52539062 C6.55087891 22.51701172 5.50996094 22.50863281 4.4375 22.5 C3.39271484 22.49548828 2.34792969 22.49097656 1.27148438 22.48632812 C-1.3190666 22.47449913 -3.90950559 22.45801689 -6.5 22.4375 C-4.74545615 25.61984105 -4.74545615 25.61984105 -2.5 28.4375 C2.64131184 28.96563349 2.64131184 28.96563349 6.9375 26.4375 C7.453125 25.7775 7.96875 25.1175 8.5 24.4375 C11.4719385 25.56201727 13.83440687 26.66043791 16.5 28.4375 C15.43911529 32.15059647 13.82455769 35.07768861 10.73046875 37.4765625 C5.30665133 39.81326843 -0.78149074 39.30690933 -6.5 38.4375 C-11.71930794 36.11267552 -15.0539334 32.58217696 -17.5 27.4375 C-17.81623473 24.70819489 -17.9770186 22.28264446 -17.9375 19.5625 C-17.92722778 18.49177246 -17.92722778 18.49177246 -17.91674805 17.39941406 C-17.70367116 10.45007485 -16.23605152 7.2140107 -11.38671875 2.29296875 C-7.48906685 -0.21228789 -4.53144176 -0.12130803 0 0 Z M-4.875 10.3125 C-6.70248337 12.25643314 -6.70248337 12.25643314 -6.5 14.4375 C-2.21 14.4375 2.08 14.4375 6.5 14.4375 C5.87158027 10.4660831 5.87158027 10.4660831 3.5 8.4375 C-0.25117071 7.94821686 -1.86248923 7.93420202 -4.875 10.3125 Z " fill="#E0E0E0" transform="translate(292.5,26.5625)"/>
<path d="M0 0 C0.79792969 -0.02384766 1.59585937 -0.04769531 2.41796875 -0.07226562 C6.61412516 -0.06175772 8.25158593 -0.04039417 11.3671875 2.97265625 C13.47343328 6.59037892 13.99664682 8.39595406 13.97265625 12.5703125 C13.96943359 13.55644531 13.96621094 14.54257812 13.96289062 15.55859375 C13.95451172 16.59113281 13.94613281 17.62367187 13.9375 18.6875 C13.93298828 19.72777344 13.92847656 20.76804687 13.92382812 21.83984375 C13.91201952 24.41411962 13.89555075 26.98828146 13.875 29.5625 C15.195 29.5625 16.515 29.5625 17.875 29.5625 C19.22939668 32.27129335 18.94001451 34.57183268 18.875 37.5625 C15.69427446 39.15286277 12.33814242 38.96875325 8.875 38.5625 C6.0625 37 6.0625 37 3.875 35.5625 C2.39 36.0575 2.39 36.0575 0.875 36.5625 C0.875 37.2225 0.875 37.8825 0.875 38.5625 C-9.98886139 39.18626238 -9.98886139 39.18626238 -14.3125 36.8125 C-17.86398529 32.40375964 -17.29883447 28.03828593 -17.125 22.5625 C-16.125 19.5625 -16.125 19.5625 -14.25 18.0625 C-8.96627604 15.5263125 -3.01989416 13.5625 2.875 13.5625 C2.875 12.5725 2.875 11.5825 2.875 10.5625 C-0.56015002 9.93792727 -3.61564814 9.5625 -7.125 9.5625 C-7.125 10.2225 -7.125 10.8825 -7.125 11.5625 C-8.115 11.5625 -9.105 11.5625 -10.125 11.5625 C-10.125 12.2225 -10.125 12.8825 -10.125 13.5625 C-11.115 13.5625 -12.105 13.5625 -13.125 13.5625 C-14.96429894 11.19768707 -16.09550191 9.53593687 -16.1875 6.5 C-12.71626039 0.17009248 -6.39115291 -0.08862121 0 0 Z M-1.625 21.8125 C-2.4396875 22.04453125 -3.254375 22.2765625 -4.09375 22.515625 C-6.2954255 23.37665001 -6.2954255 23.37665001 -6.96875 25.546875 C-7.3044899 27.63269017 -7.3044899 27.63269017 -6.125 29.5625 C-3.85795895 30.667097 -3.85795895 30.667097 -1.125 30.5625 C1.81214781 28.54208785 1.81214781 28.54208785 3.875 25.5625 C4.29486946 22.85086222 4.29486946 22.85086222 3.875 20.5625 C1.97392585 20.5625 0.18271949 21.27476066 -1.625 21.8125 Z " fill="#E3E3E3" transform="translate(393.125,26.4375)"/>
<path d="M0 0 C0.75555176 0.00692871 1.51110352 0.01385742 2.28955078 0.02099609 C6.48727408 0.18620329 9.57616973 0.50310644 12.9375 3.25 C14.40234375 4.94140625 14.40234375 4.94140625 15.5625 6.625 C16.201875 7.470625 16.84125 8.31625 17.5 9.1875 C19.56681574 15.87425681 19.85688119 23.59235776 17.0625 30.125 C14.44120317 34.39138657 11.32039266 37.02195616 6.5625 38.625 C-0.06472258 39.63684867 -6.41893947 39.98607582 -12.125 36.0625 C-16.49474473 32.0202522 -18.15765861 28.39507554 -18.74609375 22.5703125 C-18.99547043 16.02606382 -18.91121651 9.78053961 -14.4375 4.625 C-9.64140594 0.6437416 -6.0049726 -0.08852215 0 0 Z M-6.4375 11.6875 C-8.1420487 16.69461182 -9.29189362 20.56890949 -6.9375 25.5 C-5.05351929 28.39792867 -4.4444584 28.62263911 -0.9375 29.8125 C2.583191 29.94522644 2.583191 29.94522644 4.9375 27.875 C7.8312 23.86833846 7.88998303 20.45537476 7.5625 15.625 C6.18035878 12.27338754 6.18035878 12.27338754 4.5625 9.625 C-1.51132897 8.82477416 -1.51132897 8.82477416 -6.4375 11.6875 Z " fill="#E1E1E1" transform="translate(142.4375,26.375)"/>
<path d="M0 0 C3.3 0 6.6 0 10 0 C10.33 0.99 10.66 1.98 11 3 C11.34160156 2.5153125 11.68320313 2.030625 12.03515625 1.53125 C14.95206843 -0.74196983 17.89086407 -0.51360167 21.4375 -0.5 C23.41556641 -0.54640625 23.41556641 -0.54640625 25.43359375 -0.59375 C29 0 29 0 31.41015625 2.40625 C34.0032133 6.63669197 34.11802691 8.96538038 34.09765625 13.9765625 C34.0962413 14.66181 34.09482635 15.3470575 34.09336853 16.05307007 C34.08776675 18.24375761 34.07521406 20.4343433 34.0625 22.625 C34.05748522 24.10937352 34.05292228 25.59374865 34.04882812 27.078125 C34.03779677 30.71878315 34.02053099 34.35938164 34 38 C30.7 38 27.4 38 24 38 C23.97494385 37.29391602 23.9498877 36.58783203 23.92407227 35.86035156 C23.80792631 32.65672491 23.68528397 29.45337882 23.5625 26.25 C23.52318359 25.13882813 23.48386719 24.02765625 23.44335938 22.8828125 C23.40146484 21.81289063 23.35957031 20.74296875 23.31640625 19.640625 C23.27974854 18.65610352 23.24309082 17.67158203 23.20532227 16.65722656 C23.02401258 14.31076449 22.65668181 12.25281588 22 10 C19.36 10 16.72 10 14 10 C12.06102788 13.27924407 11.70674472 15.85533219 11.5859375 19.640625 C11.52792969 21.24550781 11.52792969 21.24550781 11.46875 22.8828125 C11.42234375 24.54957031 11.42234375 24.54957031 11.375 26.25 C11.31699219 27.93996094 11.31699219 27.93996094 11.2578125 29.6640625 C11.16363017 32.44244109 11.08072972 35.22119799 11 38 C7.37 38 3.74 38 0 38 C0 25.46 0 12.92 0 0 Z " fill="#DFDFDF" transform="translate(234,27)"/>
<path d="M0 0 C2.16691555 3.25037332 2.66191286 5.51343755 3.4375 9.3125 C4.24472306 13.03149196 4.97966833 15.95933667 6.6875 19.375 C8.35539858 22.71079716 8.22064552 25.32257468 8 29 C6.02 29 4.04 29 2 29 C1.34 27.35 0.68 25.7 0 24 C-0.66 24 -1.32 24 -2 24 C-1.85913398 26.60452271 -1.71251536 29.20850197 -1.5625 31.8125 C-1.52318359 32.55048828 -1.48386719 33.28847656 -1.44335938 34.04882812 C-1.25618965 37.23071342 -1.01279207 39.96162378 0 43 C0.0685495 44.89470816 0.08480372 46.7916834 0.0625 48.6875 C0.05347656 49.68136719 0.04445313 50.67523438 0.03515625 51.69921875 C0.02355469 52.45847656 0.01195312 53.21773437 0 54 C-1.32 53.67 -2.64 53.34 -4 53 C-4.33 54.32 -4.66 55.64 -5 57 C-6.32 57 -7.64 57 -9 57 C-10.79702632 49.81944525 -11.58850886 42.81205443 -12.125 35.4375 C-12.21136719 34.35275391 -12.29773437 33.26800781 -12.38671875 32.15039062 C-12.99437121 24.20750492 -13.43786748 16.53382844 -12.1875 8.625 C-11.96126953 7.09746094 -11.96126953 7.09746094 -11.73046875 5.5390625 C-11 3 -11 3 -8 1 C-5.2133692 0.3033423 -2.88120712 0 0 0 Z " fill="#F53131" transform="translate(51,8)"/>
<path d="M0 0 C3.63 0 7.26 0 11 0 C11 12.54 11 25.08 11 38 C7.7 38 4.4 38 1 38 C0 37 0 37 -0.11352539 33.48999023 C-0.11336626 31.92951578 -0.10767142 30.36903607 -0.09765625 28.80859375 C-0.0962413 27.98875504 -0.09482635 27.16891632 -0.09336853 26.32423401 C-0.08775289 23.69528618 -0.07519779 21.06642227 -0.0625 18.4375 C-0.05748701 16.65950643 -0.05292376 14.88151154 -0.04882812 13.10351562 C-0.03777839 8.73564455 -0.02050331 4.36783652 0 0 Z " fill="#E5E5E6" transform="translate(214,27)"/>
<path d="M0 0 C0.99 0.33 1.98 0.66 3 1 C3.08783475 4.9998593 3.14067102 8.99946704 3.1875 13 C3.22520508 14.68802734 3.22520508 14.68802734 3.26367188 16.41015625 C3.32234336 23.09870505 2.69727134 27.88985471 0 34 C-0.53871885 36.42544409 -0.53871885 36.42544409 -0.6875 38.5 C-0.8421875 40.2325 -0.8421875 40.2325 -1 42 C-5.455 40.02 -5.455 40.02 -10 38 C-9 34 -9 34 -8 32 C-8.66 31.67 -9.32 31.34 -10 31 C-8.68 30.67 -7.36 30.34 -6 30 C-5.01 22.08 -4.02 14.16 -3 6 C-2.34 6 -1.68 6 -1 6 C-1.020625 5.195625 -1.04125 4.39125 -1.0625 3.5625 C-1 1 -1 1 0 0 Z " fill="#F63130" transform="translate(77,23)"/>
<path d="M0 0 C0.66 1.65 1.32 3.3 2 5 C-1.63 4.34 -5.26 3.68 -9 3 C-9 16.86 -9 30.72 -9 45 C-7.35 45 -5.7 45 -4 45 C-2.57142857 53.57142857 -2.57142857 53.57142857 -5 57 C-6.32 57 -7.64 57 -9 57 C-10.79702632 49.81944525 -11.58850886 42.81205443 -12.125 35.4375 C-12.21136719 34.35275391 -12.29773437 33.26800781 -12.38671875 32.15039062 C-12.99437121 24.20750492 -13.43786748 16.53382844 -12.1875 8.625 C-11.96126953 7.09746094 -11.96126953 7.09746094 -11.73046875 5.5390625 C-11 3 -11 3 -8 1 C-5.2133692 0.3033423 -2.88120712 0 0 0 Z " fill="#C72F2E" transform="translate(51,8)"/>
<path d="M0 0 C1.9375 1 1.9375 1 3 3 C3.03439815 5.85504678 2.59548533 8.15999306 2 11 C-0.77100394 12.38550197 -2.9334706 12.1877467 -6 12 C-9 10 -9 10 -9.3984375 8.125 C-9.39070312 7.42375 -9.38296875 6.7225 -9.375 6 C-9.38273438 5.29875 -9.39046875 4.5975 -9.3984375 3.875 C-8.40051164 -0.82112168 -3.84325308 -0.40033886 0 0 Z " fill="#D8D8D8" transform="translate(223,12)"/>
<path d="M0 0 C0.33 0 0.66 0 1 0 C1.22769049 5.35072662 1.15297375 11.01363155 -1 16 C-3.90820756 18.01992659 -4.76609769 18.03898372 -8.375 17.4375 C-13.71212395 15.32105429 -16.95029864 12.72692805 -19.9375 7.8125 C-20.288125 6.884375 -20.63875 5.95625 -21 5 C-20.67 4.34 -20.34 3.68 -20 3 C-16 7.75 -16 7.75 -16 10 C-15.01 10.33 -14.02 10.66 -13 11 C-12.38125 11.7115625 -12.38125 11.7115625 -11.75 12.4375 C-9.170055 14.74102233 -6.30722434 15.18879403 -3 16 C-3.061875 14.845 -3.12375 13.69 -3.1875 12.5 C-3.21274356 7.78786879 -1.84474512 4.30440528 0 0 Z " fill="#6B1D1A" transform="translate(79,49)"/>
<path d="M0 0 C0.66 0 1.32 0 2 0 C5.26357459 4.21545052 6.05197782 8.88068021 7 14 C6.360625 13.195625 5.72125 12.39125 5.0625 11.5625 C3.59396498 9.7249496 3.59396498 9.7249496 2 8 C1.67 10.64 1.34 13.28 1 16 C0.67 16 0.34 16 0 16 C0 10.72 0 5.44 0 0 Z " fill="#8B1917" transform="translate(49,32)"/>
<path d="M0 0 C0.99 0 1.98 0 3 0 C3 1.32 3 2.64 3 4 C3.66 3.67 4.32 3.34 5 3 C5.92867074 5.78601223 6.16342217 7.61066089 6.1875 10.5 C6.20167969 11.2734375 6.21585937 12.046875 6.23046875 12.84375 C6 15 6 15 4 18 C4 14.37 4 10.74 4 7 C3.34 7 2.68 7 2 7 C1.34 8.32 0.68 9.64 0 11 C-0.19406478 9.35492782 -0.38007935 7.70890406 -0.5625 6.0625 C-0.66691406 5.14597656 -0.77132812 4.22945312 -0.87890625 3.28515625 C-0.91886719 2.53105469 -0.95882812 1.77695312 -1 1 C-0.67 0.67 -0.34 0.34 0 0 Z " fill="#D12525" transform="translate(75,17)"/>
<path d="M0 0 C2.35953094 2.35953094 2.49141413 3.77895617 3 7 C3.66 7 4.32 7 5 7 C6.60355101 10.50776784 7.22036864 13.14354879 7 17 C5.5 15.625 5.5 15.625 4 14 C4 13.34 4 12.68 4 12 C3.01 12 2.02 12 1 12 C0.67 8.04 0.34 4.08 0 0 Z " fill="#E42927" transform="translate(47,20)"/>
<path d="M0 0 C3.09308516 2.55245996 3.98199617 5.2310685 5.1875 9 C5.53167969 10.051875 5.87585937 11.10375 6.23046875 12.1875 C7 15 7 15 7 18 C6.01 17.67 5.02 17.34 4 17 C4 16.34 4 15.68 4 15 C3.01167418 12.22033364 1.94244977 9.47672823 0.875 6.7265625 C0 4 0 4 0 0 Z " fill="#A02424" transform="translate(53,13)"/>
<path d="M0 0 C0.33 0 0.66 0 1 0 C1.2396943 5.63281599 0.38529821 10.54538831 -1 16 C-1.66 16 -2.32 16 -3 16 C-3.33266291 9.79029227 -2.45029331 5.71735105 0 0 Z " fill="#AB2525" transform="translate(79,49)"/>
<path d="M0 0 C0.66 1.65 1.32 3.3 2 5 C-1.63 4.34 -5.26 3.68 -9 3 C-9 3.66 -9 4.32 -9 5 C-9.66 5 -10.32 5 -11 5 C-10.67 4.01 -10.34 3.02 -10 2 C-6.54310037 0.78368346 -3.67168136 0 0 0 Z " fill="#AE2A2C" transform="translate(51,8)"/>
<path d="M0 0 C0.556875 0.226875 1.11375 0.45375 1.6875 0.6875 C0.5428125 1.3371875 0.5428125 1.3371875 -0.625 2 C-3.85152237 3.95733012 -3.85152237 3.95733012 -6.3125 6.6875 C-7.04291853 10.29773099 -7.04291853 10.29773099 -7.3125 13.6875 C-7.6425 13.6875 -7.9725 13.6875 -8.3125 13.6875 C-8.4375 6.0625 -8.4375 6.0625 -7.3125 2.6875 C-3.19128788 -0.43125512 -3.19128788 -0.43125512 0 0 Z " fill="#9F9F9F" transform="translate(384.3125,43.3125)"/>
<path d="M0 0 C2.00993705 3.01490557 2.72623341 5.2149927 3.625 8.6875 C3.88539062 9.68136719 4.14578125 10.67523438 4.4140625 11.69921875 C4.60742188 12.45847656 4.80078125 13.21773437 5 14 C4.34 13.67 3.68 13.34 3 13 C3 12.34 3 11.68 3 11 C2.34 11 1.68 11 1 11 C-0.20272819 8.59454362 -0.10071472 7.05003047 -0.0625 4.375 C-0.05347656 3.55773438 -0.04445312 2.74046875 -0.03515625 1.8984375 C-0.02355469 1.27195313 -0.01195312 0.64546875 0 0 Z " fill="#A52422" transform="translate(60,31)"/>
<path d="M0 0 C2.51083114 1.25541557 2.87125446 2.50063488 4 5 C4.66 3.68 5.32 2.36 6 1 C6 2.98 6 4.96 6 7 C4.125 7.625 4.125 7.625 2 8 C0 6 0 6 -0.125 2.875 C-0.08375 1.92625 -0.0425 0.9775 0 0 Z " fill="#9E1C1C" transform="translate(65,46)"/>
<path d="M0 0 C0.66 0 1.32 0 2 0 C2 0.66 2 1.32 2 2 C3.1446875 2.1546875 3.1446875 2.1546875 4.3125 2.3125 C7.17059424 3.04364039 8.15742885 3.76951913 10 6 C6.38238619 5.67112602 4.44334967 5.37334709 1.625 3 C0 1 0 1 0 0 Z " fill="#D2282C" transform="translate(65,59)"/>
<path d="M0 0 C1.0326802 2.78823655 1.04509293 3.8677274 0.0625 6.75 C-0.288125 7.4925 -0.63875 8.235 -1 9 C-1.99 8.67 -2.98 8.34 -4 8 C-4 7.34 -4 6.68 -4 6 C-4.66 5.67 -5.32 5.34 -6 5 C-5.195625 4.731875 -4.39125 4.46375 -3.5625 4.1875 C-2.716875 3.795625 -1.87125 3.40375 -1 3 C-0.67 2.01 -0.34 1.02 0 0 Z " fill="#E72727" transform="translate(73,49)"/>
<path d="M0 0 C2.04219706 1.69179328 2.91793306 2.63727666 3.51171875 5.26171875 C3.56972656 6.06222656 3.62773438 6.86273438 3.6875 7.6875 C3.75324219 8.49574219 3.81898437 9.30398437 3.88671875 10.13671875 C3.92410156 10.75160156 3.96148437 11.36648437 4 12 C2 11 2 11 0.875 7.6875 C0 4 0 4 0 0 Z " fill="#BC2E30" transform="translate(53,13)"/>
</svg>
